<?xml version="1.0" standalone="no"?>
<!DOCTYPE svg PUBLIC "-//W3C//DTD SVG 20010904//EN"
 "http://www.w3.org/TR/2001/REC-SVG-20010904/DTD/svg10.dtd">
<svg version="1.0" xmlns="http://www.w3.org/2000/svg"
 width="1024.000000pt" height="1024.000000pt" viewBox="0 0 1024.000000 1024.000000"
 preserveAspectRatio="xMidYMid meet">
<metadata>
Created by potrace 1.16, written by Peter Selinger 2001-2019
</metadata>
<g transform="translate(0.000000,1024.000000) scale(0.100000,-0.100000)"
fill="#000000" stroke="none">
<path d="M0 5120 l0 -5120 5120 0 5120 0 0 5120 0 5120 -5120 0 -5120 0 0
-5120z m4687 4695 c86 -26 143 -71 180 -143 18 -35 33 -77 33 -92 0 -24 5 -29
28 -32 21 -2 28 -9 30 -30 3 -24 0 -28 -22 -28 -22 0 -26 -5 -26 -28 0 -71
-97 -194 -185 -237 -20 -9 -65 -21 -99 -27 -165 -27 -330 93 -361 265 -4 22
-13 37 -21 37 -18 0 -18 39 0 46 8 3 19 26 25 51 18 69 45 114 94 160 42 39
71 52 172 77 29 7 92 -1 152 -19z m1779 -111 c96 -27 138 -51 195 -108 65 -65
111 -186 109 -283 -2 -81 -62 -215 -122 -270 -32 -30 -134 -80 -188 -92 -91
-21 -199 -8 -279 34 -47 24 -134 113 -159 161 -11 22 -28 68 -37 103 -14 57
-15 70 -1 142 25 134 87 225 188 279 55 30 140 56 189 59 9 1 57 -10 105 -25z
m-761 -34 c7 -48 8 -50 40 -50 38 0 58 -19 53 -52 -2 -18 -10 -24 -38 -26 -39
-4 -50 -15 -50 -53 0 -33 -22 -53 -50 -44 -13 4 -20 15 -20 31 0 44 -17 64
-55 64 -30 0 -35 3 -36 25 -1 14 -2 31 -3 38 -1 7 17 14 44 17 43 5 45 6 48
40 4 52 9 60 36 60 21 0 25 -6 31 -50z m1306 -109 c10 -21 30 -39 58 -52 30
-13 42 -24 39 -36 -3 -14 -11 -17 -36 -15 -42 4 -60 -11 -68 -57 -4 -20 -9
-40 -11 -44 -9 -15 -53 36 -53 59 0 16 -10 29 -30 39 -16 9 -30 22 -30 29 0
30 13 46 36 46 18 0 27 9 39 36 17 42 34 40 56 -5z m-2940 -163 c12 -45 18
-53 49 -63 23 -8 35 -18 35 -30 0 -12 -12 -22 -35 -30 -30 -10 -37 -19 -52
-65 -21 -62 -21 -62 -41 -55 -16 7 -34 45 -39 85 -2 18 -10 26 -28 28 -56 6
-70 13 -70 32 0 19 14 26 70 32 22 3 25 8 28 48 4 63 8 70 40 70 27 0 30 -5
43 -52z m1358 -109 c76 -16 189 -94 233 -160 54 -83 75 -159 43 -159 -8 0 -14
-3 -14 -7 5 -31 -11 -55 -82 -124 -44 -44 -87 -79 -95 -79 -9 0 -65 -37 -125
-82 -60 -46 -139 -103 -175 -128 -36 -25 -88 -62 -117 -83 -90 -67 -102 -69
-302 -71 -195 -1 -204 1 -274 60 -58 48 -83 105 -83 186 0 133 82 246 204 283
64 19 150 19 203 0 21 -8 40 -13 40 -12 1 1 7 30 13 65 19 108 103 222 202
272 91 46 223 62 329 39z m-2694 -59 l7 -50 39 0 c29 0 39 -4 39 -16 0 -29
-20 -52 -50 -59 -25 -5 -30 -12 -30 -35 0 -22 -6 -29 -26 -34 -32 -8 -52 7
-56 41 -2 20 -9 27 -32 29 -34 3 -46 18 -46 56 0 24 4 27 43 30 39 3 42 5 45
33 5 47 10 55 36 55 21 0 25 -6 31 -50z m817 12 c36 -18 83 -49 105 -70 51
-50 93 -152 93 -226 l0 -55 46 16 c152 52 337 -75 359 -247 l6 -45 -24 50
c-34 70 -117 151 -191 186 -67 32 -101 36 -109 15 -4 -10 6 -16 38 -21 59 -8
123 -62 153 -128 25 -57 20 -76 -10 -34 -11 15 -24 25 -29 22 -22 -14 -144 73
-153 111 -7 25 -40 49 -56 39 -5 -3 1 -16 15 -29 14 -13 25 -26 25 -29 0 -7
20 -31 101 -121 45 -50 66 -86 50 -86 -4 0 -54 45 -111 100 -57 54 -107 97
-112 94 -14 -9 -9 14 7 30 19 18 5 29 -28 21 -15 -4 -30 -1 -39 8 -13 13 -16
13 -25 -3 -10 -15 -1 -26 56 -73 37 -31 73 -68 81 -82 7 -14 17 -25 22 -25 4
0 19 -17 32 -37 13 -21 34 -48 46 -61 12 -12 20 -28 18 -34 -2 -6 -33 22 -69
63 -91 104 -141 153 -188 185 -72 47 -65 15 14 -71 68 -74 122 -147 97 -131
-6 3 -12 1 -14 -6 -2 -6 -22 11 -43 38 -57 71 -138 154 -151 154 -6 0 -17 -7
-24 -15 -10 -11 -9 -18 4 -31 9 -8 14 -20 10 -25 -3 -5 -1 -8 4 -7 9 3 152
-146 152 -157 0 -9 -25 0 -35 12 -5 6 -47 42 -91 80 -68 58 -80 73 -72 87 9
15 7 16 -9 7 -10 -6 -37 -25 -59 -43 -23 -18 -88 -68 -145 -112 -57 -43 -120
-93 -140 -111 -33 -30 -45 -34 -120 -40 -46 -4 -150 -5 -231 -3 -144 3 -147 3
-189 33 -176 124 -103 431 115 486 45 11 149 8 192 -6 20 -6 22 -1 34 59 19
102 98 206 195 258 74 39 116 48 225 45 96 -2 112 -5 172 -35z m3900 0 c112
-56 208 -181 216 -285 4 -49 7 -57 21 -51 9 4 48 9 87 12 61 3 77 1 121 -22
56 -28 114 -91 139 -152 17 -42 13 -39 -30 19 -30 40 -73 74 -83 63 -3 -3 1
-14 10 -24 12 -13 15 -28 10 -55 -5 -35 -8 -38 -33 -32 -16 3 -31 1 -35 -4 -3
-6 -2 -11 3 -11 6 0 12 -7 16 -15 4 -13 2 -13 -14 -5 -28 15 -35 12 -18 -7 25
-30 33 -47 17 -37 -21 13 -39 27 -64 52 -12 12 -27 22 -32 22 -6 0 -16 7 -23
15 -13 16 -30 20 -30 8 0 -5 28 -37 63 -73 34 -36 74 -81 87 -100 l25 -35 -30
23 c-17 13 -71 63 -120 111 -151 146 -197 163 -93 34 34 -43 80 -93 100 -112
35 -32 49 -61 30 -61 -5 0 -67 61 -138 135 l-129 134 -25 -23 c-27 -24 -50
-41 -144 -101 -143 -92 -223 -145 -261 -173 -103 -78 -189 -101 -366 -102
-147 0 -219 34 -265 128 -23 46 -26 61 -22 121 8 112 72 217 162 264 32 17 59
21 126 22 47 0 97 -4 111 -8 26 -8 27 -7 34 40 19 133 117 248 250 295 76 27
263 22 327 -10z m-3138 -144 c9 -47 10 -48 48 -48 36 0 38 -2 38 -30 0 -24 -5
-31 -27 -36 -49 -10 -53 -13 -53 -39 0 -25 -31 -65 -50 -65 -13 0 -27 28 -35
73 -7 35 -9 37 -45 37 -30 0 -40 5 -45 21 -8 26 -7 27 46 42 38 11 44 17 47
42 5 49 10 57 39 53 25 -3 29 -9 37 -50z m1633 -183 c47 -14 153 -94 153 -115
0 -23 -38 -17 -95 15 -75 41 -99 45 -56 9 22 -18 31 -35 31 -55 0 -16 -5 -29
-11 -29 -6 0 -9 -7 -5 -15 4 -12 -1 -15 -27 -11 -17 3 -42 8 -54 11 -29 9 -29
-4 -2 -39 33 -43 7 -29 -71 36 -42 35 -50 39 -60 33 -6 -4 -7 -12 -1 -24 7
-13 5 -17 -10 -18 -10 -1 -19 3 -19 9 0 6 -3 8 -7 5 -3 -4 -26 4 -50 18 -34
20 -43 23 -43 11 0 -8 10 -24 22 -36 12 -11 18 -20 13 -20 -4 0 -1 -8 7 -17
31 -36 31 -46 -1 -24 -25 18 -29 26 -20 37 8 9 8 14 1 14 -6 0 -14 -5 -18 -12
-5 -8 -11 -6 -20 6 -7 10 -15 17 -18 17 -21 -3 -26 2 -26 25 0 17 16 42 46 74
44 46 76 63 194 103 30 11 98 7 147 -8z m-3740 -176 c42 -39 82 -147 56 -150
-5 0 -16 -2 -25 -4 -11 -2 -18 3 -18 12 0 27 -33 72 -62 84 -53 22 -124 -43
-114 -103 4 -20 1 -28 -9 -28 -8 0 -15 -4 -15 -10 0 -19 -17 -10 -28 15 -32
69 11 174 83 206 34 15 104 3 132 -22z m6213 -59 c10 -5 20 -20 24 -33 3 -13
19 -29 38 -38 46 -20 45 -50 -2 -65 -30 -10 -35 -16 -38 -48 -3 -32 -6 -36
-32 -36 -25 0 -31 5 -41 40 -10 32 -17 40 -35 40 -33 0 -49 33 -25 54 9 9 24
16 33 16 8 0 22 18 31 40 17 43 19 45 47 30z m-6692 -232 c3 -37 4 -38 42 -38
29 0 42 -5 50 -19 13 -25 13 -27 -6 -45 -8 -9 -29 -16 -45 -16 -21 0 -29 -5
-30 -17 -4 -71 -2 -68 -39 -68 -27 0 -35 4 -38 20 -9 60 -12 65 -42 65 -23 0
-31 5 -36 25 -10 40 1 55 41 55 33 0 35 2 35 33 0 41 7 49 40 45 21 -3 25 -9
28 -40z m6926 -43 c4 -21 13 -35 21 -35 16 0 31 -43 20 -59 -3 -6 -13 -11 -20
-11 -8 0 -17 -11 -21 -25 -5 -21 -11 -24 -28 -19 -11 4 -21 7 -21 8 -1 0 -13
18 -28 38 -33 45 -34 55 -2 70 13 6 28 24 34 39 14 40 37 37 45 -6z m-6479
-139 c72 -30 128 -100 154 -191 10 -36 51 -354 51 -397 0 -20 -44 -26 -55 -8
-3 6 -11 54 -16 108 -24 246 -57 347 -128 396 -72 51 -153 47 -218 -9 -72 -61
-80 -91 -129 -463 -5 -40 -8 -43 -32 -40 -24 3 -27 8 -30 46 -3 45 31 312 48
372 24 87 115 181 194 201 39 10 119 2 161 -15z m6161 -4 c51 -26 110 -91 134
-148 11 -24 26 -77 34 -117 19 -89 39 -303 31 -317 -3 -6 -17 -10 -30 -10 -21
0 -24 5 -29 58 -27 268 -64 385 -139 446 -35 28 -46 31 -107 31 -61 0 -72 -3
-107 -31 -60 -49 -90 -119 -113 -269 -11 -71 -20 -149 -20 -172 0 -46 -21 -76
-47 -66 -14 5 -15 20 -10 107 14 230 51 372 115 440 15 16 50 39 77 53 61 29
148 27 211 -5z m-2717 -18 c3 -3 6 -75 6 -161 l0 -155 -52 -2 -52 -3 -3 161
c-2 89 -2 164 0 168 3 8 92 1 101 -8z m3257 -10 c4 -15 7 -36 8 -48 1 -17 9
-22 40 -26 72 -9 78 -70 6 -70 -38 0 -40 -2 -40 -30 0 -20 -8 -35 -25 -46 -33
-21 -51 -13 -72 33 -16 33 -24 39 -58 43 -35 4 -40 8 -40 30 0 19 7 27 30 33
50 15 59 23 66 54 9 44 17 53 49 53 24 0 31 -5 36 -26z m-3484 2 c4 -6 8 -82
8 -168 0 -144 -2 -158 -17 -158 -10 0 -28 -3 -40 -6 l-23 -6 0 175 0 176 33
-1 c17 -1 35 -6 39 -12z m631 -8 c48 -14 98 -64 128 -125 20 -41 21 -50 9
-101 -16 -70 -84 -144 -151 -162 -91 -25 -190 23 -226 107 -41 100 18 230 127
277 43 19 62 19 113 4z m-2033 -53 c15 -36 24 -45 44 -45 13 0 26 -7 30 -15 3
-8 1 -15 -4 -15 -6 0 -10 4 -10 9 0 5 -11 9 -25 9 -14 0 -25 -6 -25 -13 0 -7
-15 -22 -32 -34 -32 -20 -33 -20 -40 -1 -6 17 -17 20 -63 20 -42 0 -55 4 -55
15 0 19 31 35 70 35 26 0 33 6 45 33 26 62 39 62 65 2z m3350 10 c0 -19 -8
-25 -47 -33 -27 -6 -104 -13 -172 -16 -68 -3 -129 -10 -136 -16 -6 -5 -46 -15
-89 -22 -42 -6 -71 -15 -65 -18 6 -4 0 -9 -15 -12 -15 -3 -29 -1 -32 3 -3 5
-31 9 -62 9 -78 0 -130 -28 -227 -123 -62 -61 -85 -78 -102 -74 -13 2 -24 4
-25 3 -1 0 -5 -107 -8 -236 l-5 -235 -27 -3 -26 -3 -7 93 c-3 51 -5 230 -3
398 l3 305 500 5 c275 3 510 3 523 1 15 -2 22 -10 22 -26z m350 -5 c9 -53 17
-60 66 -60 43 0 44 0 44 -34 0 -35 -15 -46 -67 -46 -26 0 -35 -12 -43 -60 -9
-59 -70 -47 -70 14 0 34 -15 48 -56 55 -35 6 -39 10 -42 39 -3 32 -3 32 42 32
42 0 45 2 51 33 13 65 15 68 43 65 22 -2 28 -9 32 -38z m-4207 -60 c49 -18
108 -46 132 -64 116 -83 126 -92 155 -151 32 -65 80 -222 80 -262 0 -14 -16
-74 -36 -134 -42 -126 -76 -172 -176 -237 -62 -40 -244 -112 -284 -112 -32 0
-191 57 -243 86 -103 59 -153 106 -182 170 -32 70 -69 203 -69 247 0 42 38
184 62 231 51 99 196 202 350 247 76 22 97 20 211 -21z m1152 -66 c97 -31 210
-85 248 -119 56 -50 137 -261 137 -357 0 -105 -79 -300 -142 -352 -70 -58
-167 -112 -252 -141 l-89 -29 -86 22 c-99 25 -212 79 -271 129 -52 45 -82 97
-119 209 -51 150 -41 267 35 417 57 111 166 186 333 227 100 24 112 24 206 -6z
m2094 -44 c22 -11 48 -31 59 -45 25 -32 28 -31 58 4 63 75 183 60 229 -29 20
-38 19 -103 -1 -143 -17 -32 -241 -267 -256 -267 -16 0 -240 235 -259 271 -28
56 -25 124 7 167 26 34 73 61 107 62 10 0 35 -9 56 -20z m-4129 -192 c-1 -55
-30 -150 -60 -200 -26 -42 -35 -69 -41 -131 -10 -98 -31 -172 -75 -260 -28
-54 -44 -74 -80 -95 -25 -15 -60 -40 -77 -55 -71 -63 -142 -83 -249 -71 -41 5
-111 44 -79 44 7 0 9 4 6 10 -4 6 1 7 11 3 13 -5 16 -2 12 9 -4 10 -1 15 9 14
9 0 18 5 21 13 3 10 0 11 -9 5 -12 -6 -12 -5 -1 8 8 9 19 16 25 14 7 -1 9 -1
4 1 -4 3 3 14 15 24 l23 20 -25 -12 c-43 -20 -263 -205 -383 -321 -50 -48
-110 -81 -121 -66 -2 1 1 240 7 531 l11 527 88 0 c100 0 96 6 73 -95 -26 -109
7 -165 95 -165 82 0 107 36 118 167 l7 88 125 3 c69 2 139 0 157 -3 l31 -6 4
-99 c3 -93 5 -100 32 -129 71 -74 202 -1 182 101 -4 18 -9 56 -12 85 l-6 52
38 4 c22 2 58 4 82 5 37 2 42 0 42 -20z m6156 9 c10 -10 15 -528 7 -700 l-8
-168 -499 0 c-274 0 -501 3 -504 5 -10 11 -30 -30 -27 -54 2 -14 6 -53 9 -87
l6 -63 -40 0 -40 0 1 353 c0 379 10 692 22 704 4 4 49 9 99 11 l91 5 -9 -49
c-5 -27 -9 -73 -9 -101 0 -69 35 -108 93 -107 78 2 112 49 112 153 0 108 -11
101 175 101 l162 0 7 -37 c3 -21 6 -64 6 -95 0 -45 5 -62 25 -86 60 -72 172
-32 177 64 0 10 -3 52 -7 93 l-8 74 77 -5 c42 -3 79 -8 82 -11z m-3016 -49
c54 -31 107 -85 112 -112 2 -15 -5 -21 -29 -26 -17 -4 -36 -3 -41 2 -15 15
-24 -38 -22 -137 1 -49 1 -95 1 -101 -1 -6 -16 -17 -33 -24 -18 -7 -54 -35
-80 -64 l-47 -51 -43 41 c-53 49 -85 74 -74 56 10 -18 -23 -28 -45 -13 -12 7
-19 7 -19 1 0 -5 -7 -10 -15 -10 -9 0 -12 -6 -8 -17 5 -12 2 -15 -10 -10 -9 3
-17 4 -17 1 0 -17 34 -65 64 -92 20 -17 36 -33 36 -36 0 -3 -12 -3 -27 -1 -16
2 -33 4 -39 4 -22 2 -97 88 -123 141 -35 75 -36 200 -2 277 28 64 111 144 183
179 47 22 63 25 143 22 77 -3 98 -8 135 -30z m-4552 -10 c6 -13 16 -35 22 -50
6 -19 17 -28 32 -28 13 0 29 -4 36 -9 17 -10 26 -69 13 -84 -6 -8 -7 -27 -1
-52 5 -22 5 -44 1 -48 -10 -10 -16 6 -26 65 -3 21 -13 44 -21 53 -17 17 -94
21 -94 5 0 -5 14 -10 30 -10 27 0 30 -3 30 -30 0 -23 -5 -30 -19 -30 -35 0
-13 -39 25 -46 19 -3 37 -11 41 -17 8 -13 -64 -77 -86 -77 -18 0 -129 66 -167
99 -62 54 -31 171 58 217 48 25 51 5 12 -74 -42 -84 -40 -103 13 -147 34 -28
36 -28 49 -10 8 10 14 29 14 42 0 19 -5 23 -29 23 -49 0 -53 62 -6 80 22 8 23
13 18 64 -3 30 -3 62 0 70 9 23 42 19 55 -6z m8044 -63 c12 -25 27 -45 33 -45
7 0 31 -14 53 -30 31 -22 42 -37 42 -56 0 -25 -2 -26 -32 -19 -64 14 -70 12
-84 -25 -7 -19 -13 -53 -13 -76 -1 -46 -21 -80 -43 -72 -11 5 -16 29 -20 91
-3 47 -9 90 -12 96 -5 7 -24 4 -59 -9 -54 -21 -97 -26 -97 -12 0 4 19 27 43
50 30 29 52 42 76 44 18 1 35 7 36 13 30 112 43 121 77 50z m-2694 -428 c-3
-7 -14 -16 -26 -22 -12 -5 -22 -15 -22 -22 0 -6 -4 -13 -8 -15 -4 -1 -28 -29
-52 -60 -25 -32 -49 -58 -54 -58 -5 0 -6 17 -2 38 3 20 6 62 6 92 l0 55 81 2
c59 2 79 -1 77 -10z m2788 -88 c81 -83 90 -97 75 -112 -8 -8 -18 -4 -37 16
-13 15 -28 27 -32 27 -4 0 -20 11 -35 26 -28 26 -32 23 -39 -20 -4 -27 -28
-33 -28 -7 0 24 -12 26 -40 9 -15 -10 -22 -10 -32 0 -9 9 -6 18 12 39 39 45
84 93 86 93 1 0 33 -32 70 -71z m-8122 -6 c16 -50 21 -54 77 -79 32 -15 59
-33 59 -40 0 -16 -35 -39 -74 -48 -22 -5 -33 -18 -49 -56 -31 -74 -61 -68 -82
15 -10 38 -14 41 -60 50 -46 10 -50 13 -53 43 -3 27 0 32 25 38 15 3 35 8 45
10 9 3 24 24 33 47 23 57 45 91 55 81 4 -5 15 -33 24 -61z m4943 0 c12 -26 26
-39 43 -41 60 -9 66 -46 11 -68 -40 -16 -54 -41 -48 -88 2 -22 -25 -33 -82
-35 l-34 -1 6 58 5 58 -44 12 c-64 17 -54 62 13 62 22 0 33 5 33 14 0 8 4 26
10 40 7 20 17 26 39 26 24 0 33 -7 48 -37z m1206 23 c33 -14 89 -64 115 -104
8 -12 14 -45 14 -73 0 -66 -34 -117 -120 -176 l-63 -43 -232 0 c-128 0 -242
-3 -253 -6 -14 -4 -28 -21 -37 -47 -30 -79 -29 -81 38 -89 177 -23 246 -49
315 -118 22 -22 48 -57 60 -79 24 -49 43 -168 36 -236 -6 -60 -20 -1348 -21
-1910 l0 -400 -39 -3 -39 -3 4 1233 4 1233 -39 58 c-65 98 -147 137 -287 137
l-79 0 -15 -37 c-24 -56 -31 -115 -14 -113 8 1 51 2 96 1 80 -1 84 -2 122 -36
21 -19 44 -48 50 -64 18 -41 11 -2245 -6 -2262 -10 -10 -394 -12 -1735 -10
-947 1 -1725 4 -1730 7 -4 3 -8 514 -8 1136 l0 1131 40 38 c50 48 90 59 215
59 55 0 117 3 138 6 33 6 37 10 37 38 0 17 9 45 19 62 l19 31 -141 7 c-156 7
-265 -3 -320 -29 -46 -22 -99 -72 -123 -116 -18 -33 -19 -86 -20 -1239 0 -663
-2 -1220 -2 -1237 -2 -31 -5 -33 -37 -33 l-35 0 0 1253 0 1252 24 50 c26 58
90 119 150 146 98 43 293 49 470 14 70 -14 91 -14 180 -1 56 8 144 17 196 21
52 3 150 13 216 21 67 7 193 18 280 24 88 5 202 15 254 20 159 18 381 39 680
65 157 14 368 33 469 43 l183 17 39 90 c49 114 83 162 142 202 95 64 200 80
540 82 165 1 225 -2 250 -13z m-4306 -113 c45 -21 53 -45 53 -156 0 -106 -19
-110 -26 -6 -3 35 -7 74 -10 87 -5 26 -26 30 -23 5 1 -10 1 -49 0 -86 -1 -60
-4 -70 -21 -74 -11 -3 -20 -14 -20 -25 0 -10 5 -16 10 -13 6 4 10 -6 10 -22 0
-22 -2 -25 -11 -13 -8 11 -9 6 -4 -20 5 -26 4 -31 -4 -20 -9 13 -12 11 -17 -8
-4 -13 -10 -19 -13 -13 -4 6 -22 -3 -45 -23 -21 -19 -51 -40 -67 -46 -23 -10
-29 -19 -29 -44 0 -29 2 -31 36 -31 22 0 40 -6 47 -16 14 -22 0 -89 -18 -89
-8 0 -15 -4 -15 -9 0 -5 -14 -11 -31 -15 -58 -11 -27 -31 59 -36 45 -3 86 -10
92 -16 32 -32 -97 -204 -154 -204 -14 0 -28 -4 -31 -10 -3 -5 -20 -10 -36 -10
l-30 0 3 440 c3 376 5 441 18 454 33 33 221 46 277 19z m4394 -348 c22 -19 46
-35 54 -35 8 0 15 -1 15 -3 0 -19 -91 -173 -104 -175 -9 -2 -32 9 -51 25 -19
15 -51 41 -70 57 -19 15 -35 36 -35 46 0 39 91 120 134 120 10 0 36 -16 57
-35z m1669 -57 c93 -47 138 -148 166 -365 17 -127 13 -153 -22 -153 -14 0 -34
59 -34 101 0 42 -29 190 -46 234 -35 91 -92 135 -175 135 -112 0 -171 -100
-203 -344 -9 -66 -18 -122 -21 -124 -9 -9 -36 8 -43 29 -10 26 13 201 39 299
25 93 57 143 116 181 61 38 155 41 223 7z m-7662 -9 c85 -42 131 -140 157
-342 20 -157 20 -157 -9 -157 -30 0 -33 9 -51 139 -20 142 -38 205 -71 248
-32 42 -77 63 -136 63 -111 0 -174 -101 -208 -328 -19 -133 -29 -157 -57 -129
-15 15 -16 27 -5 130 21 204 72 319 167 378 44 27 154 26 213 -2z m8032 -21
c0 -26 6 -37 30 -50 40 -23 40 -56 1 -71 -20 -7 -31 -20 -35 -39 -9 -45 -56
-30 -56 18 0 17 -7 23 -27 26 -42 5 -45 45 -4 61 22 8 32 20 37 42 9 41 12 45
35 45 15 0 19 -7 19 -32z m-1557 8 c54 -22 110 -95 140 -183 66 -191 77 -360
20 -325 -6 4 -16 43 -23 87 -36 236 -97 352 -195 371 -110 20 -180 -87 -221
-336 -18 -112 -29 -135 -59 -124 -16 6 -17 16 -12 83 10 121 34 220 74 301 49
98 107 140 189 140 30 0 69 -6 87 -14z m-6023 -80 c0 -28 10 -37 53 -45 45 -9
44 -27 -3 -51 -23 -12 -49 -34 -58 -51 -9 -16 -19 -29 -22 -29 -3 1 -14 15
-25 33 -11 17 -29 33 -40 35 -51 10 -51 53 0 66 17 4 30 17 37 36 7 22 16 30
34 30 19 0 24 -5 24 -24z m446 -56 c5 -37 11 -50 23 -50 34 0 119 -49 149 -86
47 -57 75 -138 68 -197 -11 -94 -87 -199 -160 -218 -73 -20 -84 -27 -88 -55
-5 -43 -28 -42 -28 0 0 20 -5 36 -11 36 -6 0 -35 7 -65 16 -92 26 -189 147
-188 234 0 57 32 148 66 185 37 43 76 65 143 80 42 10 50 15 53 36 9 83 28 93
38 19z m6104 15 c36 -2 71 -1 79 4 21 13 71 -15 71 -39 0 -22 -37 -37 -53 -21
-17 17 -87 14 -87 -4 0 -8 -4 -15 -10 -15 -5 0 -10 5 -10 12 0 6 -3 8 -7 5 -3
-4 -12 -2 -20 4 -14 12 -32 15 -93 18 -19 1 -42 6 -50 11 -27 19 17 41 70 35
25 -2 74 -7 110 -10z m-523 -221 c50 -6 53 -9 57 -38 20 -145 26 -170 47 -192
29 -31 78 -31 130 -2 48 27 53 42 38 115 -6 32 -13 70 -16 86 l-5 27 66 0 c73
0 74 -2 56 -75 l-8 -30 -1 28 c0 16 -5 26 -10 23 -5 -3 -9 -39 -9 -80 -2 -144
-46 -267 -155 -434 -43 -65 -69 -85 -283 -220 -66 -42 -93 -53 -150 -62 -101
-14 -244 -13 -244 3 0 9 -2 9 -9 -1 -5 -8 -21 -12 -37 -10 l-29 3 0 427 0 428
78 0 c42 0 77 -2 77 -4 0 -3 -5 -39 -11 -82 -12 -91 -2 -127 44 -150 40 -21
90 -11 120 26 20 23 26 44 32 117 4 48 9 91 12 96 5 9 138 9 210 1z m-6917
-29 c0 -13 -7 -40 -16 -59 -30 -62 -1 -131 64 -154 82 -28 143 51 146 188 l1
45 140 0 140 0 3 -25 c2 -18 -4 -28 -20 -35 -17 -8 -25 -22 -31 -59 -8 -47
-53 -127 -81 -143 -16 -10 -62 -106 -71 -150 -4 -21 -11 -30 -20 -27 -9 4 -12
0 -9 -13 2 -10 0 -31 -5 -48 -9 -30 -9 -30 -10 10 -1 22 -4 57 -8 78 -6 37 -6
38 -47 35 -33 -2 -41 -7 -42 -23 0 -11 -1 -46 -2 -78 -1 -36 -6 -56 -12 -52
-5 3 -10 -1 -10 -10 0 -11 5 -15 15 -11 25 9 18 -2 -35 -56 -30 -31 -50 -60
-50 -74 0 -59 -100 -154 -162 -154 l-28 0 0 420 0 420 75 0 c73 0 75 -1 75
-25z m7670 8 c0 -10 -6 -38 -13 -63 -17 -57 -10 -92 26 -130 33 -34 71 -39
118 -14 41 21 59 68 59 154 l0 71 143 -3 142 -3 3 -65 c3 -87 7 -103 38 -139
20 -25 34 -31 64 -31 94 0 132 99 84 224 -5 14 3 16 60 16 64 0 66 -1 66 -25
0 -21 -5 -25 -27 -25 -46 0 -56 -13 -32 -38 l20 -22 -26 -88 c-55 -184 -77
-227 -158 -324 -47 -57 -102 -94 -150 -103 -20 -4 -41 -13 -48 -21 -6 -8 -24
-14 -40 -14 -15 0 -31 -5 -35 -11 -5 -8 -9 -8 -14 1 -5 9 -23 3 -64 -20 -32
-17 -67 -30 -79 -30 -43 4 -54 -1 -109 -43 -60 -47 -152 -92 -168 -82 -6 4
-10 165 -10 426 l0 419 75 0 c65 0 75 -2 75 -17z m-5792 -190 c39 -3 72 -7 72
-10 0 -3 -10 -14 -22 -24 -21 -19 -34 -22 -93 -23 -27 -1 -30 -5 -33 -35 -5
-50 5 -77 44 -120 37 -42 30 -59 -17 -35 -71 36 -109 123 -93 211 9 52 13 56
43 48 14 -4 59 -9 99 -12z m184 -463 c10 -12 18 -25 18 -29 0 -3 -264 -6 -587
-6 l-587 0 -13 -25 c-11 -20 -13 -151 -9 -665 3 -352 5 -688 6 -747 l0 -107
37 -36 c31 -30 33 -35 16 -35 -11 0 -40 17 -64 39 l-44 39 -6 423 c-4 233 -5
582 -2 774 l6 350 25 27 26 28 580 -4 580 -4 18 -22z m-77 -697 c-3 -302 -8
-584 -11 -629 l-6 -81 -256 -7 c-277 -8 -718 -7 -739 1 -10 4 -13 132 -13 634
l0 629 516 0 515 0 -6 -547z m6035 358 c305 -1 559 -6 563 -10 5 -5 -16 -71
-46 -147 -62 -159 -167 -475 -167 -504 0 -19 -8 -20 -300 -20 l-300 0 0 -31 0
-32 64 7 c59 6 66 5 80 -16 21 -30 20 -47 -6 -75 -29 -31 -104 -32 -143 -1
-30 23 -64 90 -65 126 0 15 -6 22 -18 22 -20 0 -23 7 -132 280 -32 80 -75 187
-95 238 -23 56 -51 108 -71 129 -19 20 -34 37 -34 39 0 6 67 9 90 3 14 -3 275
-7 580 -8z m-7680 -10 c49 -25 96 -91 119 -164 46 -151 21 -183 -34 -42 -46
120 -85 165 -143 165 -33 0 -45 -6 -71 -35 -38 -43 -63 -92 -87 -167 -13 -45
-22 -58 -37 -58 -17 0 -19 5 -14 43 7 58 42 147 78 196 56 78 121 99 189 62z
m6786 -24 c26 -13 94 -95 94 -111 0 -4 -9 -2 -20 4 -22 12 -27 1 -8 -18 7 -7
8 -12 3 -12 -5 0 -28 20 -51 44 -68 71 -145 72 -212 3 -40 -41 -54 -87 -46
-148 5 -37 3 -47 -10 -52 -23 -9 -48 45 -48 105 1 79 61 163 142 197 32 14
120 7 156 -12z m-571 -26 c52 -23 101 -80 115 -131 13 -50 0 -107 -35 -149
-34 -39 -113 -91 -140 -91 -35 0 -106 43 -139 83 -25 31 -31 49 -34 101 -5 82
20 135 85 177 54 33 91 36 148 10z m-6529 -296 c25 -19 93 -19 118 0 31 23
198 17 333 -13 33 -7 43 -6 47 4 6 15 79 19 135 8 26 -5 31 -11 31 -34 0 -25
-4 -28 -57 -39 -31 -6 -79 -11 -107 -11 -28 0 -75 -3 -105 -7 -45 -5 -50 -8
-35 -17 11 -6 19 -20 19 -31 0 -16 -8 -21 -40 -25 l-40 -5 -7 -90 c-4 -49 -5
-119 -1 -155 3 -36 2 -62 -2 -57 -10 9 -45 -21 -45 -39 0 -16 -128 -26 -270
-22 l-105 3 -3 260 c-1 143 0 265 3 272 6 18 106 17 131 -2z m7034 -250 c0
-19 -9 -29 -35 -42 -23 -11 -36 -25 -40 -44 -12 -55 -125 -97 -260 -98 -49 0
-112 -5 -140 -11 -27 -6 -57 -12 -65 -14 -9 -1 -21 -6 -29 -10 -8 -5 -16 -4
-21 4 -4 7 -13 9 -19 6 -6 -4 -9 -12 -6 -17 4 -5 1 -9 -4 -9 -6 0 -11 10 -11
21 0 18 -2 20 -15 9 -11 -9 -13 -15 -5 -20 8 -5 7 -9 -3 -13 -10 -4 -16 -35
-21 -124 -4 -65 -10 -128 -13 -140 -6 -26 -28 -30 -37 -7 -3 9 -6 130 -6 269
l0 254 23 3 c12 2 176 4 365 5 l342 3 0 -25z m357 -7 c48 -51 82 -113 76 -137
-3 -11 1 -31 9 -43 15 -24 29 -58 24 -58 -4 0 -66 99 -66 106 0 2 -14 27 -31
54 l-31 51 -107 -7 c-58 -3 -108 -8 -110 -10 -2 -1 0 -73 4 -160 l8 -156 108
7 c120 7 222 -5 120 -15 -59 -5 -77 -24 -39 -39 19 -8 14 -10 -27 -11 -65 -1
-120 -32 -165 -92 -23 -32 -37 -43 -42 -35 -4 7 -8 139 -8 295 l0 282 123 0
123 0 31 -32z m3 -189 c30 -45 57 -85 58 -90 2 -5 -54 -9 -127 -9 l-131 0 0
74 c0 106 0 106 79 106 l66 -1 55 -80z m846 63 c38 0 51 -4 66 -22 24 -30 23
-37 -11 -71 -37 -36 -94 -40 -135 -8 -21 16 -26 29 -26 64 0 45 13 59 41 44 9
-5 38 -8 65 -7z m-97 -237 c87 -28 99 -39 128 -106 20 -44 20 -46 2 -80 -10
-19 -26 -60 -35 -91 -9 -32 -23 -63 -32 -70 -10 -9 -50 -13 -121 -13 -136 0
-149 8 -191 116 -34 88 -36 107 -16 115 8 3 18 18 21 33 10 47 62 85 163 120
2 1 38 -10 81 -24z m-8104 -60 c32 -31 31 -50 -1 -92 -30 -40 -49 -41 -86 -6
-33 32 -35 45 -7 89 25 41 59 45 94 9z m7393 -82 c26 -21 43 -46 55 -84 l19
-54 -27 -53 c-41 -78 -67 -95 -137 -90 -68 5 -100 29 -129 96 -26 59 -24 111
4 152 51 75 144 90 215 33z m-793 16 c22 -6 51 -21 64 -32 31 -29 64 -103 57
-130 -3 -12 -32 -50 -65 -84 -56 -59 -63 -63 -105 -63 -37 0 -49 5 -74 33 -94
101 -93 100 -66 179 29 88 97 122 189 97z m-6199 -59 c65 -28 109 -103 143
-243 12 -48 24 -131 28 -182 6 -92 5 -95 -15 -95 -16 0 -24 9 -31 38 -6 20
-11 49 -11 63 0 52 -31 203 -52 250 -39 92 -132 145 -200 116 -77 -33 -111
-106 -147 -311 -24 -137 -28 -151 -48 -154 -32 -5 -35 21 -18 142 29 206 59
284 137 350 68 58 123 65 214 26z m-503 -89 c4 -19 16 -34 34 -43 38 -18 35
-41 -7 -54 -22 -7 -37 -19 -40 -33 -7 -29 -24 -28 -30 1 -5 18 -14 24 -43 26
-33 3 -37 6 -37 32 0 24 5 30 31 35 17 4 33 14 36 23 17 49 48 56 56 13z
m1314 -241 c35 -21 81 -99 65 -109 -15 -10 -25 -113 -12 -121 18 -11 -8 -45
-48 -64 -19 -9 -32 -20 -28 -23 3 -3 12 0 21 7 9 7 15 8 15 2 0 -15 -81 -52
-114 -52 -64 0 -138 63 -166 141 -27 75 14 171 94 220 42 26 130 25 173 -1z
m2424 -27 c34 -52 78 -79 141 -85 29 -3 209 -7 399 -8 328 -1 349 -1 385 18
40 21 73 52 92 87 10 20 21 20 1081 20 1066 0 1071 0 1065 -20 -28 -91 -88
-164 -168 -204 l-65 -33 -158 6 c-185 7 -4189 13 -4499 6 l-210 -4 -56 27
c-84 41 -159 125 -183 205 l-6 22 1079 0 1079 0 24 -37z m4114 -36 c0 -87 6
-89 192 -85 83 2 155 7 160 11 4 5 7 38 6 74 l-2 65 50 -4 c77 -8 84 -20 84
-141 0 -76 -3 -101 -12 -99 -7 1 -13 -3 -13 -9 0 -7 -8 -19 -18 -28 -11 -9
-68 -75 -128 -148 -96 -115 -169 -220 -212 -302 -13 -24 -12 -24 7 -7 19 17
19 17 14 -3 -3 -12 -13 -21 -24 -21 -17 0 -69 -63 -69 -83 0 -5 -7 -15 -15
-24 -9 -8 -19 -28 -22 -44 -3 -16 -11 -29 -19 -29 -7 0 -17 -6 -21 -12 -4 -7
-17 -18 -28 -24 -30 -17 -31 -42 0 -54 14 -5 70 -10 123 -10 102 0 139 -10
107 -28 -19 -10 -13 -32 9 -32 20 0 44 32 29 37 -39 14 2 22 121 25 74 2 138
6 142 10 4 5 8 34 9 65 3 151 6 183 15 183 6 0 10 -55 10 -146 l0 -146 -28
-28 c-24 -24 -39 -28 -111 -35 -99 -9 -428 3 -453 16 -47 25 -48 38 -48 559 0
332 3 498 11 511 14 26 66 49 104 46 30 -2 30 -3 30 -60z m-6995 6 c-1 -34
-17 -111 -30 -138 -23 -50 -50 -124 -60 -165 -24 -93 -142 -240 -194 -240 -14
0 -28 -5 -31 -10 -4 -6 -32 -23 -64 -39 -31 -16 -64 -37 -72 -47 -22 -27 -73
-44 -133 -44 -30 0 -58 -5 -61 -11 -4 -5 -12 -8 -18 -6 -14 5 -105 -52 -161
-99 -22 -19 -49 -34 -61 -34 -20 0 -23 6 -28 83 -4 45 -7 236 -7 425 l0 342
76 0 76 0 -6 -37 c-18 -117 -19 -123 -2 -148 37 -57 113 -66 157 -19 21 22 26
50 38 197 1 4 64 7 141 7 l139 0 0 -72 c-1 -86 9 -117 48 -148 52 -41 136 -4
149 65 3 18 -1 55 -10 85 -9 30 -16 57 -16 61 0 5 24 10 53 12 28 2 58 4 65 5
7 1 12 -9 12 -25z m6532 -195 c7 7 25 12 40 12 41 0 36 -32 -12 -80 -22 -22
-40 -35 -40 -30 0 6 -7 10 -15 10 -7 0 -18 7 -23 16 -8 15 -11 15 -31 -5 -23
-23 -37 -26 -46 -11 -3 6 -1 10 4 10 6 0 11 14 11 30 0 17 -4 30 -8 30 -5 0
-9 6 -9 13 0 8 12 11 37 9 23 -2 41 1 45 9 6 9 11 7 22 -6 10 -15 16 -16 25
-7z m-4849 -172 c35 -14 67 -54 67 -82 0 -16 -1 -16 -18 -1 -31 29 -72 37
-200 41 -92 2 -135 0 -159 -10 -31 -14 -33 -13 -33 8 0 12 7 30 17 40 14 16
33 18 155 18 94 0 149 -4 171 -14z m810 -2 c182 -47 296 -167 328 -345 16 -88
3 -163 -44 -258 -59 -120 -173 -204 -314 -232 -77 -16 -143 -3 -245 48 -124
62 -192 149 -228 289 -18 69 -19 88 -10 144 29 172 130 289 300 347 77 27 131
28 213 7z m3261 -1 c303 -6 316 -7 310 -25 -9 -29 -167 -186 -293 -292 -134
-112 -257 -196 -324 -220 -27 -10 -68 -33 -93 -52 -40 -31 -50 -34 -113 -34
l-68 0 -7 129 c-4 71 -4 213 0 315 l7 186 132 0 c72 0 274 -3 449 -7z m-1639
-33 l30 -14 -36 -4 c-25 -2 -50 -16 -85 -47 -32 -29 -43 -44 -32 -45 22 0 37
-52 33 -110 -2 -25 -4 -70 -5 -100 0 -42 -3 -51 -11 -40 -8 11 -12 12 -16 3
-7 -18 -30 -16 -37 2 -10 26 -26 16 -26 -15 0 -28 -2 -30 -40 -30 -33 0 -40
-3 -40 -20 0 -14 -11 -22 -40 -30 -35 -9 -44 -18 -42 -41 1 -3 -12 -5 -28 -4
-24 1 -28 -1 -18 -12 6 -8 17 -12 24 -9 7 3 16 0 20 -6 4 -7 3 -8 -4 -4 -7 4
-12 3 -12 -2 0 -4 25 -30 55 -56 39 -33 55 -54 55 -72 0 -36 -41 -32 -87 10
-80 71 -225 174 -239 169 -8 -3 -11 -9 -8 -14 3 -5 -1 -9 -9 -9 -7 0 -22 -8
-33 -18 -10 -10 -40 -32 -65 -49 -46 -32 -119 -106 -119 -122 0 -5 7 -14 15
-21 9 -8 15 -8 15 -2 0 6 -6 12 -12 15 -10 3 -9 9 3 22 16 16 17 15 15 -15 -1
-24 -8 -35 -24 -41 -12 -5 -22 -13 -22 -19 0 -5 -5 -10 -11 -10 -7 0 -17 -8
-24 -17 -14 -19 -132 -28 -152 -11 -7 5 -17 7 -22 4 -5 -4 -14 2 -20 11 -9 16
-10 16 -11 -4 0 -12 5 -23 12 -25 7 -3 5 -7 -6 -11 -12 -5 -26 2 -45 21 l-28
27 -6 345 c-4 190 -4 362 -1 382 5 28 13 40 33 47 17 7 212 9 551 8 422 -3
531 -6 555 -17z m2327 -41 c46 -59 171 -265 184 -304 8 -23 23 -51 32 -61 38
-41 52 -70 52 -109 0 -39 -13 -65 -33 -65 -4 0 -5 5 -2 10 3 6 2 10 -4 10 -5
0 -13 -4 -16 -10 -3 -6 -15 -1 -28 10 -15 14 -29 19 -47 15 -16 -3 -45 3 -75
16 -39 17 -61 21 -114 17 -118 -9 -193 -65 -205 -155 -7 -55 -29 -94 -44 -78
-5 6 -5 137 -1 320 5 171 6 334 2 364 l-6 54 143 -5 c136 -5 144 -7 162 -29z
m-5048 -5 c19 -7 40 -77 31 -104 -4 -11 -14 -20 -23 -20 -16 -1 -16 -2 1 -14
13 -10 17 -28 17 -70 l0 -56 -60 0 -60 0 1 33 c0 17 4 72 8 121 6 69 12 92 26
103 21 14 35 16 59 7z m197 -59 c7 -58 1 -65 -58 -65 -60 0 -73 7 -73 44 0 70
7 77 69 74 l56 -3 6 -50z m-1008 6 c16 -1 17 -21 17 -272 l0 -272 -53 6 c-40
4 -67 15 -114 47 -98 68 -175 66 -270 -7 -39 -30 -51 -34 -72 -27 -24 9 -26
15 -29 74 -4 88 4 127 32 145 19 13 29 13 52 4 60 -24 101 -28 202 -19 56 5
107 12 113 16 21 13 -13 32 -69 38 -31 4 -69 12 -84 18 -20 7 -41 7 -77 -2
-67 -16 -76 -8 -50 41 32 65 139 210 159 217 10 4 65 4 122 1 57 -4 111 -7
121 -8z m329 -3 c15 -12 84 -130 145 -247 25 -49 30 -85 11 -79 -16 5 -33 33
-107 168 l-57 105 -45 3 c-24 2 -66 1 -94 -3 l-50 -6 0 -153 0 -154 95 -5
c136 -7 165 -24 93 -53 -21 -9 -58 -25 -83 -36 -25 -12 -51 -21 -59 -22 -8 -1
-16 -7 -19 -15 -3 -9 0 -11 8 -6 8 5 11 4 6 -3 -4 -6 -13 -9 -20 -6 -9 3 -15
-6 -20 -27 -5 -26 -9 -30 -18 -21 -24 24 -34 240 -21 460 l6 112 107 0 c70 0
112 -4 122 -12z m3618 -63 c7 -8 21 -15 31 -15 12 0 16 -5 13 -15 -4 -8 -11
-12 -17 -8 -6 4 -8 0 -4 -10 3 -9 2 -19 -2 -21 -5 -3 -11 -28 -15 -55 -3 -27
-12 -53 -19 -58 -11 -9 -158 -36 -162 -31 -1 2 0 51 3 110 l4 107 72 4 c39 1
74 4 77 5 4 1 12 -5 19 -13z m398 -72 c-1 -35 -6 -67 -10 -69 -5 -3 -5 -10 -2
-16 5 -7 0 -9 -14 -6 -12 4 -19 2 -16 -3 7 -11 -8 -16 -73 -23 l-53 -5 0 93 0
93 73 9 c43 6 77 6 85 0 8 -6 12 -30 10 -73z m-4068 27 c17 -9 115 -169 108
-176 -2 -1 -51 -4 -110 -6 -83 -2 -109 0 -113 10 -10 28 -5 151 7 158 7 4 28
11 48 15 19 4 36 7 38 8 2 0 12 -4 22 -9z m885 -214 c-1 -49 -4 -61 -24 -77
-33 -27 -60 -24 -71 7 -12 29 -13 117 -3 128 4 4 28 6 53 4 l45 -3 0 -59z
m-160 34 c9 -27 -4 -103 -19 -112 -6 -4 -30 -8 -53 -8 l-43 0 0 70 0 70 54 0
c46 0 56 -3 61 -20z m3343 -176 c23 -35 42 -71 42 -79 0 -18 -68 -65 -95 -65
-12 0 -26 5 -31 10 -6 6 -25 18 -43 28 -17 9 -31 22 -31 27 1 11 102 144 110
144 3 0 24 -29 48 -65z m645 -8 c48 -20 76 -56 86 -113 12 -62 1 -110 -36
-154 -69 -81 -182 -70 -237 24 -30 52 -41 104 -27 138 13 35 69 99 95 109 32
13 83 11 119 -4z m898 -1 c40 -21 86 -87 94 -135 17 -103 -103 -208 -207 -180
-82 23 -128 98 -115 192 14 106 135 171 228 123z m-6103 -29 c36 -18 73 -85
75 -135 1 -28 -7 -50 -28 -81 -37 -53 -76 -74 -128 -67 -47 6 -83 38 -109 95
-54 121 74 248 190 188z m616 -7 c50 -23 74 -136 42 -197 -35 -67 -90 -95
-160 -80 -63 13 -100 60 -99 126 3 135 102 203 217 151z m-1134 -56 c27 -26
29 -31 21 -66 -22 -93 -78 -116 -126 -52 -74 96 17 198 105 118z m1961 7 c33
-18 21 -30 -31 -30 -37 0 -55 -5 -70 -20 -28 -28 -26 -75 5 -106 32 -32 78
-30 83 4 2 14 -2 22 -11 22 -16 0 -30 24 -20 34 15 14 63 5 73 -14 25 -46 -18
-110 -75 -110 -52 0 -115 70 -115 129 0 27 55 89 83 94 40 8 58 7 78 -3z
m-411 -4 c0 -2 3 -12 7 -22 5 -15 2 -16 -29 -10 -24 4 -39 2 -46 -7 -15 -18
-4 -31 46 -56 48 -25 55 -51 20 -88 -31 -33 -118 -31 -118 3 0 21 27 29 45 14
12 -10 21 -10 40 -2 37 17 31 30 -28 56 -30 13 -57 31 -60 40 -8 21 6 51 31
65 16 10 92 15 92 7z m4628 -22 c49 -6 52 -8 52 -35 l0 -29 -147 0 c-82 0
-158 -3 -169 -6 -19 -5 -22 -1 -26 30 -2 20 -2 39 1 41 7 7 227 6 289 -1z
m-1194 -80 c22 -19 47 -34 55 -34 8 0 37 21 63 47 l48 47 0 -154 c0 -147 -7
-189 -26 -177 -5 3 -7 -15 -5 -39 2 -27 -1 -44 -8 -44 -7 0 -11 28 -11 77 0
42 -3 74 -6 70 -3 -3 -10 -261 -15 -574 -5 -312 -10 -588 -12 -613 l-4 -45
-47 -8 c-37 -6 -54 -4 -72 8 -48 31 -53 50 -58 230 -4 128 -9 1223 -6 1268 0
12 61 -22 104 -59z m-328 -65 c8 -17 34 -51 56 -75 39 -43 40 -45 22 -59 -18
-14 -51 -20 -84 -16 -8 1 -33 3 -55 5 -22 2 -57 7 -78 11 l-37 7 43 38 c24 21
56 57 71 79 16 23 32 41 37 41 5 0 16 -14 25 -31z m2434 -6 c66 -45 67 -87 3
-121 -31 -17 -38 -15 -72 14 -38 31 -39 53 -5 93 30 36 40 38 74 14z m-2823
-125 c6 -13 27 -44 47 -71 20 -26 36 -49 36 -52 0 -2 -18 -14 -40 -25 -22 -11
-46 -32 -53 -47 l-14 -27 -12 22 c-6 12 -34 34 -62 48 l-51 25 44 47 c25 26
53 60 62 75 22 33 30 34 43 5z m-2603 -61 c25 -24 46 -51 46 -59 0 -29 -95
-96 -130 -93 -8 1 -22 3 -30 3 -21 3 -72 86 -64 106 9 23 93 86 114 86 9 0 38
-19 64 -43z m4289 26 c12 -21 -17 -56 -65 -79 -65 -30 -107 -55 -164 -97 -23
-18 -66 -45 -94 -62 -28 -16 -58 -36 -66 -43 -7 -7 -30 -16 -49 -19 -19 -3
-35 -9 -35 -13 0 -4 -19 -12 -42 -18 -39 -10 -44 -9 -60 11 -17 22 -18 22 -18
-20 0 -23 -5 -76 -11 -118 -9 -61 -15 -75 -28 -73 -12 2 -17 20 -22 78 -9 104
-10 445 -2 453 9 10 651 9 656 0z m394 -103 c110 -183 114 -215 38 -284 l-44
-40 -99 -1 c-81 0 -104 -3 -119 -18 -11 -9 -22 -14 -26 -11 -3 4 -9 -12 -13
-35 -4 -23 -15 -52 -24 -64 -18 -21 -18 -21 -25 33 -3 30 -5 158 -3 283 2 189
6 229 18 237 8 6 65 9 125 8 l110 -3 62 -105z m-4312 35 l0 -59 40 -8 c49 -8
301 -10 342 -2 20 4 33 15 40 35 9 23 9 29 -3 29 -9 0 -14 11 -14 30 0 30 0
30 56 30 50 0 59 -3 90 -34 l34 -34 0 -473 c0 -434 -2 -476 -18 -495 -32 -40
-75 -54 -167 -54 -92 0 -95 2 -75 54 9 25 13 26 92 26 46 0 89 4 96 9 11 7 15
89 18 412 2 222 0 424 -5 449 -9 44 -9 44 -10 10 -3 -91 -52 -171 -194 -319
-40 -42 -87 -94 -105 -116 -19 -22 -67 -74 -108 -116 -63 -65 -135 -154 -181
-225 -12 -18 -13 -18 -27 -1 -13 17 -15 15 -22 -28 -4 -31 -3 -50 5 -58 7 -7
51 -14 101 -15 80 -4 89 -6 94 -25 15 -56 13 -57 -81 -57 -100 0 -127 11 -160
59 l-23 34 0 469 0 470 35 35 c32 32 37 34 92 31 l58 -3 0 -60z m238 58 c93
-6 97 -7 97 -30 0 -23 -2 -23 -105 -25 -58 -1 -117 -2 -132 -2 -24 -1 -28 3
-31 32 -3 31 -2 32 35 32 21 0 82 -3 136 -7z m2490 -57 c-5 -30 -12 -41 -34
-49 -36 -14 -39 -31 -39 -266 0 -108 -5 -250 -11 -316 -6 -66 -13 -205 -17
-310 -7 -188 -7 -190 -30 -193 -13 -2 -30 2 -38 8 -10 9 -14 9 -14 1 0 -20
-36 -11 -61 15 l-24 26 -5 557 -5 558 40 -15 c64 -24 163 -21 205 5 19 12 36
21 37 19 1 -1 0 -19 -4 -40z m-846 -28 c15 -24 31 -45 34 -48 20 -15 27 -163
22 -423 -5 -264 -11 -315 -34 -301 -5 3 -9 169 -9 371 l0 366 -322 -5 c-178
-3 -429 -3 -558 1 l-235 6 -5 -105 c-3 -58 -4 -143 -3 -190 6 -245 -2 -345
-27 -345 -13 0 -15 21 -12 135 1 74 2 212 2 305 0 94 3 175 7 182 5 7 42 30
83 52 l75 40 477 0 478 1 27 -42z m409 -119 c-42 -67 -46 -80 -47 -139 l-1
-65 -10 45 c-10 42 -11 43 -20 21 -7 -19 -11 -22 -21 -12 -8 8 -9 14 -1 19 18
12 25 42 10 42 -8 0 -16 6 -19 13 -2 6 -12 -5 -22 -26 -16 -35 -18 -75 -19
-463 -1 -318 -4 -424 -13 -424 -18 0 -52 49 -58 84 -9 52 -11 976 -2 976 21 0
95 -62 112 -94 11 -20 24 -36 30 -36 6 0 34 32 64 70 29 39 56 69 58 66 2 -2
-16 -37 -41 -77z m-3843 46 c41 -39 34 -85 -18 -119 -21 -14 -29 -14 -48 -5
-28 15 -46 39 -47 61 0 18 58 85 75 87 6 1 23 -10 38 -24z m2685 -182 l3 -133
-126 0 -126 0 6 128 c3 70 5 131 5 135 0 4 53 6 118 5 l117 -3 3 -132z m654
17 c3 -63 4 -123 1 -133 -4 -16 -16 -17 -121 -15 l-117 3 -3 127 -3 127 103 4
c57 1 110 3 118 2 12 0 16 -23 22 -115z m-322 -19 l0 -129 -112 -4 c-62 -2
-119 -2 -125 0 -10 3 -13 39 -13 133 l0 129 125 0 125 0 0 -129z m-1987 29
c32 -25 75 -25 107 0 14 11 33 20 43 20 26 0 57 -18 57 -34 0 -28 -251 -286
-278 -286 -25 0 -32 39 -32 186 0 105 1 112 23 122 33 16 52 14 80 -8z m-717
-85 c4 -17 -4 -41 -27 -82 -39 -69 -46 -75 -80 -69 -14 3 -31 0 -37 -6 -14
-14 -42 -3 -42 18 0 19 148 163 167 164 7 0 15 -11 19 -25z m428 -62 c62 -65
75 -83 59 -83 -11 0 -26 -6 -32 -14 -6 -8 -26 -20 -43 -27 -21 -9 -37 -27 -52
-59 l-21 -47 -79 84 -79 84 69 64 c38 35 74 68 79 74 6 5 12 9 15 8 3 -1 41
-39 84 -84z m5100 -18 c34 -16 66 -61 66 -92 0 -10 -7 -46 -15 -78 -11 -45
-25 -69 -51 -94 -34 -31 -40 -33 -90 -29 -43 4 -61 11 -84 33 -94 90 -29 275
97 275 25 0 59 -7 77 -15z m-623 -34 c36 -35 39 -43 39 -93 0 -45 -5 -62 -29
-95 -40 -56 -68 -73 -117 -73 -66 0 -113 48 -128 132 -4 20 -12 38 -19 41 -8
2 -7 9 6 21 9 10 20 29 23 43 10 38 59 63 128 63 55 0 61 -3 97 -39z m-2533
-123 l3 -88 -126 0 -125 0 0 84 c0 100 -9 94 145 92 l100 -1 3 -87z m317 83
c3 -6 8 -46 12 -90 l6 -80 -129 0 -129 -1 3 84 c3 69 7 86 20 89 33 9 211 7
217 -2z m335 -58 c0 -107 4 -103 -126 -103 l-114 0 0 80 0 80 120 0 120 0 0
-57z m-2181 -118 c34 -29 66 -113 57 -150 -15 -58 -99 -121 -152 -112 -73 12
-134 75 -134 138 0 117 144 195 229 124z m1521 -131 c0 -103 -1 -104 -130
-104 l-110 0 0 78 c0 43 3 82 7 85 3 4 57 7 120 7 l113 0 0 -66z m257 55 c-10
-6 -22 -22 -27 -35 -5 -13 -16 -24 -24 -24 -12 0 -30 -34 -27 -52 1 -5 -3 -8
-9 -8 -5 0 -10 -9 -10 -20 0 -13 -7 -20 -20 -20 -13 0 -20 7 -20 20 0 11 -4
20 -9 20 -6 0 -8 -9 -6 -20 2 -11 0 -20 -6 -20 -5 0 -9 38 -9 85 l0 85 93 0
c69 -1 88 -3 74 -11z"/>
<path d="M4476 9760 c-81 -32 -137 -95 -151 -172 l-7 -37 44 -3 c35 -2 44 -7
46 -24 3 -19 -3 -23 -42 -28 -26 -4 -46 -13 -46 -19 0 -7 15 -44 34 -82 36
-75 67 -102 145 -130 24 -8 45 -15 47 -15 2 0 4 41 4 91 0 89 0 90 -22 84 -13
-4 -30 -9 -39 -11 -19 -5 -28 32 -21 90 l4 36 20 -26 c16 -20 26 -24 48 -19
16 4 37 1 48 -6 17 -11 26 -10 49 1 15 8 31 16 36 18 4 2 7 -17 7 -42 l0 -46
-40 0 -40 0 0 -86 c0 -84 0 -85 23 -79 95 28 205 114 227 179 18 55 9 68 -45
65 -25 -2 -45 0 -45 4 -1 36 1 37 45 37 25 0 45 4 45 9 0 33 -38 103 -78 144
-41 41 -126 87 -162 87 -6 0 -10 -35 -10 -79 l0 -79 33 -5 c24 -4 38 1 57 17
47 41 60 49 60 37 0 -6 -25 -36 -55 -65 l-54 -54 -63 5 c-86 6 -90 8 -86 40 2
23 8 29 36 31 l32 3 0 75 c0 85 -2 86 -84 54z"/>
<path d="M6283 9651 c-60 -20 -131 -65 -140 -87 -6 -17 12 -41 51 -65 27 -17
30 -16 80 7 28 13 57 24 64 24 8 0 12 21 12 70 0 39 -3 70 -7 69 -5 0 -32 -8
-60 -18z"/>
<path d="M6400 9598 l0 -63 53 -25 c48 -23 55 -31 86 -97 38 -80 42 -82 134
-67 36 7 38 8 31 38 -21 103 -117 216 -210 248 -102 35 -94 37 -94 -34z"/>
<path d="M6092 9508 c-24 -40 -58 -145 -50 -154 4 -3 33 -8 65 -11 l59 -5 25
63 24 63 -41 38 c-23 21 -46 38 -52 38 -6 0 -19 -15 -30 -32z"/>
<path d="M6345 9462 c-42 -7 -66 -27 -90 -76 -14 -27 -25 -61 -25 -74 0 -39
30 -90 65 -112 46 -28 92 -25 148 9 36 24 48 38 57 71 16 59 -15 148 -58 165
-31 13 -77 21 -97 17z"/>
<path d="M6040 9287 c0 -48 45 -135 97 -184 63 -61 102 -84 160 -93 47 -7 53
1 53 72 0 37 -2 39 -67 70 -65 32 -83 52 -115 130 -2 4 -31 10 -65 14 -54 6
-63 4 -63 -9z"/>
<path d="M6553 9241 c-29 -58 -75 -98 -125 -108 -27 -5 -28 -8 -28 -69 l0 -64
28 6 c57 14 131 56 180 103 40 39 54 61 70 112 11 35 17 65 13 66 -3 1 -29 3
-58 6 l-52 4 -28 -56z"/>
<path d="M5898 8123 c-33 -35 -45 -66 -46 -119 -1 -54 30 -84 92 -91 62 -7
120 29 137 85 31 106 -110 202 -183 125z"/>
<path d="M3242 8050 c-141 -55 -200 -98 -238 -172 -29 -57 -64 -181 -64 -227
0 -49 58 -231 86 -267 26 -35 160 -108 264 -144 l66 -22 86 30 c110 39 196 83
230 116 33 33 108 224 108 274 0 46 -13 93 -56 207 -38 97 -33 93 -164 161
-69 35 -184 74 -216 73 -16 0 -62 -13 -102 -29z m78 -114 l0 -64 -47 -20 c-84
-36 -94 -36 -138 2 -36 31 -38 36 -25 50 13 14 182 93 203 95 4 1 7 -28 7 -63z
m146 38 c82 -36 125 -58 130 -66 3 -4 -12 -22 -32 -40 -41 -36 -67 -38 -132
-11 -47 20 -52 27 -52 91 0 62 4 63 86 26z m-344 -152 l36 -38 -15 -56 c-17
-60 -29 -68 -105 -68 -23 0 -28 4 -24 18 3 9 10 37 16 62 16 59 40 120 49 120
4 0 23 -17 43 -38z m324 -53 c50 -30 64 -56 64 -117 0 -62 -20 -116 -48 -131
-26 -14 -155 -14 -204 0 -27 7 -40 17 -44 34 -9 36 3 47 43 39 26 -5 34 -4 29
5 -4 6 -22 11 -41 11 -38 0 -45 12 -45 78 0 59 6 68 55 86 61 22 151 20 191
-5z"/>
<path d="M4429 7980 c-48 -16 -118 -44 -156 -63 -68 -35 -70 -37 -107 -116
-20 -44 -44 -116 -53 -159 -14 -72 -14 -86 0 -150 9 -38 30 -107 47 -152 l32
-81 111 -54 c176 -84 233 -98 294 -74 96 39 236 115 257 140 21 25 69 140 105
251 15 46 5 91 -57 251 -27 70 -50 117 -59 117 -7 0 -37 13 -66 29 -48 28
-228 92 -252 90 -5 0 -49 -13 -96 -29z m66 -117 c-7 -48 -8 -48 -75 -80 -37
-18 -72 -33 -77 -33 -5 0 -20 -36 -33 -79 -25 -83 -32 -91 -90 -91 -51 0 -55
11 -31 86 24 81 68 157 83 148 7 -4 8 -2 4 4 -9 14 9 25 119 71 50 21 94 35
99 31 4 -5 5 -30 1 -57z m203 14 c81 -40 85 -43 123 -112 46 -83 75 -163 63
-175 -5 -5 -30 -4 -56 1 -50 11 -53 15 -125 151 -9 17 -38 39 -77 58 -53 26
-65 37 -70 62 -12 63 -9 70 27 63 17 -4 69 -25 115 -48z m-79 -181 c35 -32 51
-78 51 -152 0 -61 -2 -68 -32 -98 -29 -28 -42 -34 -102 -40 -66 -7 -72 -6
-110 22 -40 29 -41 31 -49 108 -9 87 -6 108 21 142 40 51 172 62 221 18z
m-324 -206 c29 -82 28 -93 -8 -135 l-34 -39 -32 77 c-17 42 -34 90 -38 107
l-6 31 53 -3 c51 -3 54 -5 65 -38z m125 -151 c30 -11 61 -27 68 -36 14 -19 16
-83 3 -83 -19 0 -172 63 -192 79 l-20 16 21 28 c24 30 23 30 120 -4z"/>
<path d="M8492 7387 c-30 -32 -29 -87 1 -123 20 -23 28 -26 60 -20 68 13 103
100 57 146 -29 29 -90 27 -118 -3z"/>
<path d="M7180 7119 c-20 -5 -119 -7 -225 -3 -208 7 -254 0 -317 -43 -49 -33
-79 -78 -132 -202 -25 -58 -51 -108 -58 -112 -6 -4 -46 -10 -88 -14 -41 -3
-176 -17 -300 -30 -245 -26 -358 -37 -640 -61 -102 -8 -228 -22 -280 -30 -52
-8 -192 -21 -310 -29 -603 -42 -729 -64 -777 -131 -33 -46 -35 -66 -18 -176 9
-56 20 -130 25 -163 5 -33 18 -150 29 -260 23 -227 50 -383 80 -450 11 -25 43
-68 71 -95 86 -84 36 -80 997 -80 l844 0 15 -37 c9 -21 35 -80 60 -131 43 -92
44 -95 27 -122 -9 -15 -34 -38 -55 -50 l-39 -22 -949 -6 -948 -7 -39 -31 c-21
-17 -45 -43 -53 -57 -13 -24 -13 -30 0 -54 15 -26 29 -37 61 -46 14 -5 13 -14
-9 -79 -20 -59 -23 -85 -19 -135 11 -118 72 -199 192 -255 63 -29 80 -32 160
-33 79 0 97 4 147 28 75 37 135 98 171 176 48 102 46 170 -8 294 -7 16 19 17
465 17 446 0 472 -1 465 -17 -45 -107 -53 -166 -30 -248 40 -151 186 -255 354
-255 84 0 166 37 234 106 78 78 92 113 92 224 0 84 -3 101 -27 146 -26 49 -88
114 -109 114 -6 0 8 21 29 48 42 50 75 109 86 155 10 41 -20 151 -65 245 l-40
83 20 53 c21 56 68 225 132 471 84 328 231 859 270 981 l30 92 80 7 c44 4 177
4 295 0 l214 -7 45 44 c36 36 45 52 45 79 0 44 -21 74 -70 99 -42 21 -74 23
-130 9z m-740 -537 c0 -5 -11 -42 -25 -83 -14 -41 -39 -126 -56 -189 -16 -63
-44 -171 -62 -240 l-33 -125 -117 -3 -117 -3 0 305 0 304 95 7 c52 4 134 13
182 20 110 16 133 17 133 7z m-580 -102 c0 -32 -5 -52 -12 -55 -7 -2 -68 -5
-136 -7 l-123 -3 3 45 3 45 75 11 c41 6 101 12 133 13 l57 1 0 -50z m-442 -37
l-3 -48 -80 -11 c-44 -6 -104 -14 -132 -18 l-53 -7 0 45 c0 44 1 45 38 51 20
4 66 12 102 20 36 7 80 13 98 14 l33 1 -3 -47z m-432 -18 c4 -8 4 -26 0 -39
-5 -22 -11 -23 -115 -30 -61 -3 -117 -9 -126 -12 -12 -5 -15 2 -15 30 0 20 3
36 8 37 4 0 48 6 97 13 126 18 145 18 151 1z m-436 -43 l0 -28 -131 -12 c-72
-7 -136 -14 -143 -15 -6 -1 -12 10 -14 25 -3 26 -2 26 75 33 43 4 98 11 123
15 84 14 90 13 90 -18z m1289 -71 c19 -27 21 -43 21 -200 l0 -171 -135 0 -135
0 0 170 c0 195 -8 181 103 194 38 5 55 11 50 18 -4 7 -1 9 8 6 8 -3 23 -2 34
3 30 12 32 11 54 -20z m-422 -51 c2 0 3 -74 3 -165 l0 -165 -135 0 -135 0 0
159 c0 103 4 162 11 166 18 12 192 21 224 13 16 -4 31 -8 32 -8z m-429 -167
l2 -163 -135 0 -135 0 0 150 c0 147 0 150 23 155 34 9 178 23 212 21 l30 -1 3
-162z m-428 -20 l0 -143 -150 0 c-82 0 -150 1 -150 3 -8 61 -27 284 -24 288 2
3 70 7 151 8 81 1 149 4 152 7 14 14 21 -36 21 -163z m1664 -291 c7 -11 -97
-381 -106 -381 -5 -1 -28 -1 -53 -1 l-45 0 0 178 c0 97 4 182 8 189 11 17 186
30 196 15z m-1664 -187 l0 -185 -79 0 c-92 0 -124 9 -146 44 -18 27 -65 240
-65 294 l0 32 145 0 145 0 0 -185z m430 -5 l0 -190 -135 0 -135 0 0 190 0 190
135 0 135 0 0 -190z m430 0 l0 -190 -135 0 -135 0 0 190 0 190 135 0 135 0 0
-190z m440 23 c0 -93 -3 -178 -6 -191 -6 -22 -9 -23 -138 -20 l-131 3 -3 175
c-1 96 0 180 2 187 4 10 40 13 141 13 l135 0 0 -167z m-1270 -901 c95 -49 148
-159 120 -249 -23 -74 -70 -130 -131 -158 -73 -32 -137 -33 -204 -1 -60 28
-97 66 -124 126 -27 59 -26 104 3 165 63 133 209 184 336 117z m1525 12 c85
-30 155 -128 155 -218 0 -34 -41 -129 -68 -160 -21 -23 -129 -76 -156 -76 -53
0 -133 36 -179 82 -107 106 -113 208 -21 317 58 69 164 90 269 55z"/>
<path d="M4395 4652 c-65 -42 -95 -93 -95 -163 0 -74 46 -126 131 -149 90 -25
165 10 208 95 43 86 30 144 -45 202 -49 37 -152 45 -199 15z m132 -104 c31
-29 30 -69 -3 -102 -32 -31 -47 -32 -85 -5 -36 25 -39 72 -7 106 27 29 65 29
95 1z"/>
<path d="M5943 4652 c-39 -21 -80 -74 -92 -119 -27 -97 72 -202 190 -203 54 0
112 37 153 97 33 48 33 94 1 149 -50 84 -169 120 -252 76z m120 -93 c14 -6 31
-22 38 -36 11 -20 11 -28 -3 -50 -8 -14 -27 -33 -41 -41 -55 -33 -121 30 -97
93 18 46 52 57 103 34z"/>
<path d="M2269 6345 c-62 -34 -49 -227 17 -252 9 -3 26 0 38 7 11 8 46 27 76
44 64 35 79 51 80 88 0 20 -7 28 -31 37 -18 6 -43 11 -55 11 -17 0 -31 12 -49
40 -27 43 -37 46 -76 25z"/>
<path d="M7926 5876 c-3 -30 -3 -74 0 -100 6 -42 9 -46 41 -52 19 -4 35 -5 37
-3 2 2 1 50 -2 107 l-5 102 -32 0 c-32 0 -32 -1 -39 -54z"/>
<path d="M9115 5933 c-35 -9 -45 -24 -45 -69 0 -24 -4 -44 -10 -44 -5 0 -10
17 -10 38 0 37 0 37 -13 12 -8 -15 -16 -42 -19 -61 l-6 -35 71 1 72 0 0 79 c0
80 -4 88 -40 79z"/>
<path d="M2445 5253 c-36 -9 -45 -24 -45 -75 0 -62 11 -83 51 -97 65 -23 95
-7 110 57 11 50 4 84 -19 99 -23 14 -72 22 -97 16z"/>
<path d="M2764 5246 c-36 -16 -44 -32 -44 -90 0 -49 19 -72 66 -82 44 -9 83
11 99 51 20 48 19 70 -7 99 -28 32 -73 40 -114 22z"/>
<path d="M2101 5234 c-21 -15 -23 -23 -19 -72 5 -62 30 -92 77 -92 74 0 114
104 63 163 -19 22 -89 23 -121 1z"/>
<path d="M2742 4857 c-22 -24 -31 -98 -14 -123 12 -19 49 -34 82 -34 37 0 90
47 90 79 0 30 -19 73 -38 87 -29 23 -95 17 -120 -9z"/>
<path d="M8720 5231 c0 -11 4 -31 9 -44 9 -24 13 -25 120 -26 122 -1 125 1
101 63 -9 26 -11 26 -120 26 -102 0 -110 -1 -110 -19z"/>
<path d="M9008 5244 c-3 -5 -3 -25 -1 -45 l5 -36 66 -7 c37 -3 93 -6 124 -6
l57 0 11 41 c6 23 10 43 7 45 -8 9 -264 16 -269 8z"/>
<path d="M8583 5111 l-43 -6 26 -55 c14 -30 27 -56 29 -59 3 -2 32 -5 66 -5
l60 -1 -6 35 c-4 19 -13 50 -20 68 -15 34 -22 36 -112 23z"/>
<path d="M9381 5110 c-74 -5 -74 -5 -87 -40 -7 -19 -13 -48 -13 -63 l-1 -28
63 3 62 3 29 57 c15 31 26 61 25 65 -2 4 -37 6 -78 3z"/>
<path d="M8761 5098 c0 -7 8 -35 18 -63 l18 -50 88 -3 88 -3 -7 58 c-4 31 -12
61 -19 65 -21 14 -187 10 -186 -4z"/>
<path d="M9118 5103 c-73 -3 -98 -7 -98 -17 0 -7 3 -34 6 -60 l7 -46 88 0 88
0 10 38 c23 87 24 92 10 90 -8 -1 -58 -4 -111 -5z"/>
<path d="M8634 4867 c30 -80 61 -140 78 -154 19 -14 98 -4 98 13 0 8 -14 57
-30 109 l-31 95 -69 0 -70 0 24 -63z"/>
<path d="M8848 4922 l-36 -3 29 -86 c16 -48 29 -95 29 -105 0 -15 9 -18 60
-18 l60 0 -1 68 c0 37 -3 84 -7 106 -7 38 -8 39 -52 40 -25 0 -62 0 -82 -2z"/>
<path d="M9036 4923 c-4 -5 12 -192 18 -201 10 -16 81 -15 93 1 12 15 53 155
53 179 0 14 -13 17 -81 20 -44 2 -82 2 -83 1z"/>
<path d="M9324 4923 l-61 -4 -23 -99 c-13 -55 -21 -102 -18 -105 6 -6 118 -9
122 -4 5 8 56 196 56 207 0 7 -3 11 -7 10 -5 -1 -35 -3 -69 -5z"/>
<path d="M7459 5197 c-94 -63 -108 -187 -27 -237 42 -25 88 -25 138 0 46 23
60 45 60 93 0 78 -47 137 -109 139 -39 1 -39 5 2 17 l32 9 -31 1 c-17 1 -46
-9 -65 -22z"/>
<path d="M990 4636 l0 -144 50 -4 50 -3 0 116 c0 64 -3 131 -6 148 -6 29 -9
31 -50 31 l-44 0 0 -144z"/>
<path d="M1167 4774 c-9 -9 -9 -205 -1 -256 6 -37 8 -38 50 -38 l44 0 -1 118
c-2 163 -5 176 -49 180 -20 2 -39 0 -43 -4z"/>
<path d="M9100 4246 c0 -9 -16 -20 -40 -27 -39 -12 -40 -14 -40 -55 0 -23 4
-54 10 -68 9 -25 13 -26 89 -26 l79 0 4 53 c2 28 7 59 11 67 7 14 -18 29 -105
68 -5 2 -8 -3 -8 -12z"/>
<path d="M8322 4150 c-45 -27 -60 -62 -41 -97 48 -90 115 -109 175 -49 25 25
34 43 34 68 0 80 -93 123 -168 78z"/>
<path d="M7550 4142 c-25 -25 -30 -39 -30 -76 0 -36 5 -50 27 -70 39 -36 68
-40 119 -16 85 41 105 96 56 151 -24 27 -37 33 -85 37 -52 4 -58 2 -87 -26z
m134 -43 c51 -40 26 -88 -53 -103 -64 -12 -92 44 -50 98 25 32 66 34 103 5z"/>
<path d="M2163 3754 c-70 -35 -97 -134 -48 -172 36 -29 96 -37 133 -18 36 19
62 57 62 92 0 36 -37 93 -67 105 -33 12 -42 11 -80 -7z"/>
<path d="M1225 3377 c-3 -12 -5 -54 -3 -92 l3 -70 40 0 40 0 3 93 3 92 -40 0
c-34 0 -42 -4 -46 -23z"/>
<path d="M1417 3393 c-4 -3 -7 -44 -7 -90 l0 -83 44 0 44 0 4 74 c4 103 3 106
-41 106 -21 0 -41 -3 -44 -7z"/>
<path d="M4158 3326 c-145 -42 -234 -135 -273 -281 -42 -162 62 -343 234 -410
59 -23 80 -27 133 -22 176 15 302 127 350 309 23 91 -31 250 -109 318 -89 79
-232 115 -335 86z m77 -45 c3 -5 2 -41 -1 -79 l-7 -70 -41 -6 c-103 -16 -116
-19 -110 -27 3 -5 19 -9 35 -9 24 0 33 -6 44 -32 15 -35 5 -58 -17 -41 -7 6
-26 13 -43 17 -28 7 -27 6 18 -36 26 -25 47 -52 47 -62 0 -26 -55 -76 -82 -76
-53 0 -68 57 -16 62 45 4 44 19 -1 45 -34 19 -40 29 -43 60 l-3 38 -17 -37
c-17 -39 -25 -42 -66 -32 -20 6 -22 11 -17 52 9 75 31 106 112 163 42 29 92
58 112 65 43 16 88 18 96 5z m207 -222 c28 -27 29 -33 23 -82 -4 -28 -11 -59
-16 -68 -10 -20 -60 -39 -100 -39 l-29 0 0 90 c0 50 -3 90 -7 90 -43 -1 -53
-13 -53 -64 0 -84 -10 -126 -30 -126 -13 0 -19 12 -24 53 -3 28 -6 67 -6 85 0
19 -8 40 -20 52 -12 12 -18 25 -15 29 3 5 60 9 126 10 l121 0 30 -30z"/>
<path d="M8027 3283 c-26 -4 -28 -7 -20 -31 4 -15 8 -85 8 -157 l0 -130 203
-1 c241 -2 228 -19 122 161 -96 160 -97 161 -201 162 -46 0 -97 -2 -112 -4z
m236 -153 c31 -49 57 -91 57 -94 0 -11 -241 -6 -261 4 -21 12 -24 49 -13 134
l7 46 76 0 76 0 58 -90z"/>
<path d="M7300 2743 c-44 -23 -74 -73 -65 -111 10 -49 42 -89 79 -102 32 -10
42 -9 81 10 36 18 47 29 56 61 31 103 -59 188 -151 142z m93 -57 c21 -16 23
-83 3 -108 -18 -25 -65 -22 -93 4 -27 26 -30 73 -6 100 19 21 70 23 96 4z"/>
<path d="M8166 2719 c-43 -37 -55 -83 -32 -128 25 -47 58 -64 113 -58 145 16
135 217 -11 217 -25 0 -45 -9 -70 -31z m123 -43 c19 -20 22 -32 17 -60 -11
-58 -78 -76 -123 -34 -30 28 -29 63 2 93 32 33 74 33 104 1z"/>
<path d="M2103 2719 c-67 -19 -85 -98 -34 -150 24 -24 38 -29 76 -29 52 0 95
32 95 71 0 24 -26 84 -43 97 -20 16 -60 20 -94 11z"/>
<path d="M2671 2696 c-34 -36 -35 -120 -2 -147 70 -57 190 26 167 116 -14 54
-124 75 -165 31z"/>
<path d="M7815 2311 l-60 -6 -3 -139 c-1 -77 1 -143 5 -147 4 -4 76 -8 158 -9
185 -2 175 -3 175 13 0 20 -137 279 -152 289 -14 8 -27 8 -123 -1z m141 -136
c24 -38 43 -76 44 -82 0 -10 -26 -13 -100 -13 l-100 0 0 85 0 86 56 -3 57 -3
43 -70z"/>
<path d="M7857 1816 c-47 -44 -47 -91 0 -146 37 -45 84 -42 134 9 33 32 39 45
39 80 0 36 -4 44 -32 61 -47 28 -108 26 -141 -4z"/>
<path d="M7208 1817 c-14 -13 -29 -38 -32 -54 -6 -26 -1 -37 35 -77 44 -48 70
-56 112 -35 75 39 91 107 38 160 -39 39 -114 42 -153 6z"/>
<path d="M3197 1569 c-9 -5 -24 -24 -33 -41 -19 -36 -6 -78 32 -103 21 -13 28
-14 58 -1 65 27 85 88 41 131 -25 26 -67 32 -98 14z"/>
</g>
</svg>
